<svg version="1.2" xmlns="http://www.w3.org/2000/svg" viewBox="0 0 512 512" width="512" height="512">
	<style>
		.s0 { fill: #3d6ad6 } 
	</style>
	<path id="Path 0" class="s0" d="m284.5 52.61c-4.4 0.78-10.93 2.38-14.5 3.55-3.57 1.17-9.65 3.68-13.5 5.58-3.85 1.9-10.33 6-14.4 9.11-4.07 3.11-9.63 8.35-12.37 11.65-2.73 3.3-6.71 8.92-8.83 12.5-2.13 3.58-5.45 10.89-7.38 16.25-1.94 5.36-4.19 13.91-5.02 19-1.08 6.69-1.49 17.34-1.5 38.5v29.25h-56.15l-5.85 6v73l4.82 5.5 57.18 0.5v173l5 5h76l5.5-4.83 0.5-173.17c55.29-0.03 64.15-0.36 66-1.29 1.38-0.7 3.04-2.82 3.69-4.74 0.83-2.41 1.2-13.51 1.2-36.47 0-22.96-0.37-34.06-1.2-36.47-0.65-1.92-2.31-4.04-3.69-4.74-1.85-0.93-10.71-1.26-34.25-1.28l-31.75-0.01c0.46-49.45 0.75-53.95 2.15-56.5 0.92-1.65 2.72-3.98 4-5.18 1.29-1.2 3.7-2.72 5.35-3.37 1.89-0.75 12.94-1.43 29.84-1.82l26.84-0.63 4.82-5.5c0-58.3-0.32-67.65-1.25-69.5-0.69-1.37-2.26-2.94-3.5-3.5-1.38-0.61-15.35-0.97-36-0.91-24.5 0.06-35.94 0.48-41.75 1.52z"/>
</svg>