<svg version="1.2" xmlns="http://www.w3.org/2000/svg" viewBox="0 0 512 512" width="512" height="512">
	<style>
		.s0 { fill: #dd2a7b } 
	</style>
	<path id="Path 0" fill-rule="evenodd" class="s0" d="m248.5 12.2c18.7-0.07 52.45 0.29 75 0.8 22.55 0.52 45.05 1.42 50 2.01 4.95 0.59 12.38 1.76 16.5 2.6 4.13 0.84 12 3.01 17.5 4.83 5.5 1.82 13.38 4.99 17.5 7.04 4.13 2.06 11.32 6.26 16 9.35 4.68 3.09 12.56 9.68 17.53 14.64 4.96 4.97 11.55 12.86 14.64 17.53 3.09 4.67 7.29 11.88 9.35 16 2.05 4.12 5.22 12 7.04 17.5 1.82 5.5 3.99 13.38 4.83 17.5 0.84 4.12 2 11.32 2.56 16 0.57 4.68 1.52 29.2 2.12 54.5 0.61 26.04 0.81 69 0.46 99-0.35 29.15-1.06 59.75-1.58 68-0.52 8.25-1.68 19.27-2.56 24.5-0.89 5.23-2.94 14-4.56 19.5-1.62 5.5-5.34 14.95-8.26 21-2.92 6.05-7.54 14.15-10.27 18-2.73 3.85-7.85 10.1-11.38 13.88-3.53 3.79-10.24 9.76-14.92 13.27-4.68 3.51-12.77 8.6-18 11.31-5.23 2.7-14.23 6.46-20 8.35-5.77 1.89-14.32 4.17-19 5.06-4.68 0.9-12.1 2.07-16.5 2.61-4.4 0.53-32.3 1.49-62 2.14-41.39 0.89-67.08 0.89-110-0.01-30.8-0.65-59.15-1.61-63-2.12-3.85-0.52-10.6-1.66-15-2.53-4.4-0.87-12.72-3.16-18.5-5.08-5.78-1.93-14.78-5.74-20-8.47-5.22-2.73-12.65-7.31-16.5-10.18-3.85-2.86-10.16-8.36-14.01-12.22-3.86-3.85-9.36-10.16-12.22-14.01-2.87-3.85-7.45-11.27-10.18-16.5-2.73-5.23-6.54-14.23-8.47-20-1.92-5.77-4.21-14.1-5.08-18.5-0.87-4.4-2.01-11.15-2.53-15-0.51-3.85-1.47-31.98-2.12-62.5-0.92-42.85-0.92-68.27 0-111.5 0.65-30.8 1.61-59.15 2.12-63 0.52-3.85 1.66-10.6 2.53-15 0.87-4.4 3.08-12.5 4.9-18 1.82-5.5 4.99-13.38 7.04-17.5 2.06-4.13 6.26-11.33 9.35-16 3.09-4.67 9.68-12.56 14.64-17.53 4.97-4.96 12.86-11.55 17.53-14.64 4.67-3.09 11.87-7.29 16-9.35 4.12-2.05 12-5.22 17.5-7.04 5.5-1.82 13.37-3.99 17.5-4.83 4.12-0.84 11.78-2.04 17-2.67 5.22-0.62 24.35-1.46 42.5-1.87 18.15-0.4 48.3-0.79 67-0.87zm-107 47.74c-4.4 0.65-12.28 2.3-17.5 3.65-5.22 1.36-13.55 4.45-18.5 6.87-4.95 2.42-11.68 6.56-14.95 9.22-3.28 2.65-8.13 7.52-10.78 10.82-2.65 3.3-6.57 9.37-8.7 13.5-2.12 4.12-4.99 11.1-6.37 15.5-1.37 4.4-3.18 12.5-4.02 18-1.28 8.39-1.58 27.58-1.85 119.5-0.31 103.42-0.23 110.06 1.54 119.5 1.02 5.5 3.19 13.82 4.82 18.5 1.63 4.68 4.67 11.43 6.75 15 2.09 3.57 6.44 9.37 9.67 12.87 3.24 3.51 8.59 8.41 11.89 10.9 3.3 2.48 10.05 6.47 15 8.87 4.95 2.39 12.37 5.21 16.5 6.26 4.12 1.05 11.1 2.42 15.5 3.04 4.4 0.63 19.7 1.56 34 2.07 14.3 0.52 50.75 0.94 81 0.93 30.25 0 66.93-0.43 81.5-0.95 14.57-0.52 30.77-1.61 36-2.42 5.23-0.81 13.55-2.65 18.5-4.09 4.95-1.45 12.82-4.6 17.5-7 5.03-2.59 11.32-6.94 15.4-10.67 3.79-3.47 8.72-9.01 10.94-12.31 2.22-3.3 5.28-8.7 6.8-12 1.52-3.3 3.87-9.82 5.22-14.5 1.36-4.68 3.23-13.68 4.18-20 1.22-8.16 1.83-20.06 2.11-41 0.21-16.23 0.66-50.43 0.98-76 0.35-27.22 0.14-58.73-0.5-76-0.6-16.22-1.76-33.78-2.57-39-0.82-5.22-2.43-12.88-3.57-17-1.15-4.13-4.06-11.55-6.47-16.5-2.4-4.95-6.56-11.7-9.24-15-2.68-3.3-7.55-8.15-10.83-10.78-3.27-2.63-9.33-6.52-13.45-8.65-4.13-2.12-11.1-4.99-15.5-6.37-4.4-1.37-12.73-3.24-18.5-4.15-5.83-0.92-22.07-2.07-36.5-2.58-14.3-0.5-53-0.86-86-0.78-33 0.07-69.45 0.46-81 0.85-11.55 0.4-24.6 1.25-29 1.9zm245.5 37.32c5.56 0.24 9.71 0.99 12 2.17 1.93 0.98 5.23 3.43 7.33 5.43 2.11 2 4.77 5.44 5.91 7.64 1.27 2.44 2.27 6.72 2.57 11 0.29 3.97-0.02 8.95-0.69 11.5-0.66 2.47-2.89 6.75-4.96 9.5-2.57 3.43-5.61 5.94-9.64 8-5.04 2.57-6.95 2.99-13.45 2.95-5.62-0.04-8.86-0.63-12.57-2.3-2.75-1.24-6.69-3.91-8.76-5.95-2.06-2.03-4.75-5.95-5.97-8.7-1.67-3.75-2.21-6.88-2.19-12.5 0.02-5.35 0.61-8.79 2.07-12 1.12-2.47 3.34-6.04 4.94-7.92 1.6-1.88 5.61-4.72 8.91-6.31 5.46-2.63 6.76-2.86 14.5-2.51zm-133 32.87c1.93-0.08 8.23 0.34 14 0.94 5.77 0.6 14.55 2.11 19.5 3.37 4.95 1.25 13.27 4.13 18.5 6.39 5.23 2.27 13.55 6.79 18.5 10.05 4.95 3.27 12.55 9.24 16.9 13.28 4.34 4.04 10.76 11.16 14.27 15.84 3.5 4.68 8.58 12.78 11.28 18 2.69 5.22 6.26 13.55 7.93 18.5 1.67 4.95 3.77 13.5 4.68 19 1.24 7.52 1.5 13.48 1.08 24-0.34 8.5-1.37 17.54-2.61 23-1.12 4.95-3.16 12.37-4.52 16.5-1.36 4.12-4.54 11.55-7.07 16.5-2.52 4.95-6.68 11.93-9.24 15.5-2.55 3.57-8.03 9.92-12.17 14.09-4.14 4.18-10.91 9.95-15.03 12.84-4.13 2.89-10.99 7.01-15.25 9.16-4.26 2.15-11.69 5.23-16.5 6.84-4.81 1.62-12.57 3.75-17.25 4.73-6.2 1.31-12.96 1.8-25 1.8-12.04 0-18.8-0.49-25-1.8-4.68-0.98-12.44-3.11-17.25-4.73-4.81-1.61-12.24-4.69-16.5-6.84-4.26-2.15-11.13-6.29-15.25-9.19-4.13-2.91-10.89-8.69-15.04-12.85-4.14-4.15-9.62-10.48-12.17-14.05-2.55-3.57-6.71-10.55-9.25-15.5-2.53-4.95-5.9-13.05-7.48-18-1.59-4.95-3.65-12.6-4.58-17-0.93-4.4-1.91-14.07-2.18-21.5-0.36-9.83-0.05-16.22 1.15-23.5 0.9-5.5 3-14.05 4.67-19 1.66-4.95 4.84-12.6 7.06-17 2.23-4.4 6.36-11.33 9.18-15.4 2.83-4.07 7.66-10.15 10.74-13.5 3.08-3.36 8.7-8.66 12.5-11.78 3.79-3.12 10.72-7.97 15.4-10.78 4.68-2.81 11.87-6.49 16-8.2 4.12-1.7 11.78-4.17 17-5.49 5.22-1.32 13.1-2.78 17.5-3.24 4.4-0.47 9.57-0.91 11.5-0.98zm-28.5 51.33c-3.85 1.47-9.47 4.17-12.5 6-3.03 1.84-7.93 5.52-10.9 8.19-2.97 2.67-7.3 7.32-9.61 10.35-2.32 3.03-5.85 8.76-7.85 12.75-2 3.99-4.52 10.51-5.6 14.5-1.08 3.99-2.43 10.96-3 15.5-0.73 5.78-0.72 10.72 0.04 16.5 0.59 4.54 2.16 11.63 3.49 15.75 1.33 4.13 4.19 10.65 6.34 14.5 2.16 3.85 6.07 9.48 8.68 12.5 2.62 3.02 7.04 7.45 9.83 9.83 2.79 2.38 7.55 5.79 10.58 7.57 3.03 1.79 8.43 4.43 12 5.87 3.57 1.44 10.55 3.32 15.5 4.18 4.95 0.86 11.03 1.57 13.5 1.57 2.48 0 8.55-0.71 13.5-1.57 4.95-0.86 11.93-2.74 15.5-4.18 3.57-1.44 8.98-4.08 12-5.87 3.02-1.78 7.79-5.19 10.58-7.57 2.79-2.38 7.21-6.81 9.83-9.83 2.61-3.02 6.52-8.65 8.68-12.5 2.15-3.85 5.01-10.38 6.34-14.5 1.33-4.13 2.9-11.21 3.49-15.75 0.76-5.78 0.77-10.72 0.04-16.5-0.57-4.54-1.92-11.51-3-15.5-1.08-3.99-3.37-10.06-5.1-13.5-1.72-3.44-4.82-8.72-6.87-11.75-2.06-3.03-6.16-7.79-9.12-10.59-2.95-2.8-8.07-6.81-11.37-8.92-3.3-2.11-9.15-5.12-13-6.69-3.85-1.57-10.26-3.52-14.25-4.33-3.99-0.81-12.09-1.43-18-1.39-5.91 0.04-13.45 0.67-16.75 1.4-3.3 0.73-9.15 2.52-13 3.98z"/>
</svg>