<svg version="1.2" xmlns="http://www.w3.org/2000/svg" viewBox="0 0 512 512" width="512" height="512">
	<style>
		.s0 { fill: #0073b6 } 
	</style>
	<path id="Path 0" fill-rule="evenodd" class="s0" d="m255.5 23.06c174.41-0.07 203.7 0.12 208 1.37 2.75 0.8 7.25 2.97 10 4.83 2.75 1.87 6.68 5.83 8.73 8.81 2.05 2.99 4.42 8.13 5.25 11.43 1.35 5.29 1.5 29.95 1.02 412l-2.8 6c-1.54 3.3-4.69 7.95-7 10.33-2.31 2.39-6.22 5.37-8.7 6.63-2.48 1.26-6.86 2.8-9.75 3.42-3.79 0.81-60.69 1.12-204.25 1.12-143.56 0-200.46-0.31-204.25-1.12-2.89-0.62-7.28-2.14-9.75-3.37-2.48-1.24-6.75-4.71-9.5-7.71-2.75-3-5.9-7.67-7-10.38-1.97-4.86-2-7.53-2.25-207.92-0.23-179.05-0.08-203.71 1.27-209 0.83-3.3 3.2-8.44 5.25-11.43 2.05-2.98 5.98-6.95 8.73-8.81 2.75-1.87 7.02-4.01 9.5-4.76 3.73-1.13 39.04-1.37 207.5-1.44zm-144 67.85c-3.47 1.69-8 5.06-10.75 8.01-2.61 2.79-5.87 7.44-7.24 10.33-1.37 2.89-2.94 7.95-3.48 11.25-0.67 3.99-0.66 8.01 0 12 0.55 3.3 2.11 8.36 3.48 11.25 1.37 2.89 4.46 7.39 6.86 10 2.4 2.61 7.02 6.18 10.25 7.93 3.41 1.84 8.82 3.67 12.88 4.36 5.44 0.92 8.34 0.92 13-0.02 3.3-0.67 8.42-2.41 11.38-3.87 2.95-1.46 7.6-4.9 10.32-7.65 2.72-2.75 6.04-7.25 7.38-10 1.35-2.75 2.95-7.93 3.56-11.5 0.83-4.84 0.82-8.16-0.04-13-0.64-3.58-2.3-8.75-3.69-11.5-1.4-2.75-4.65-7.18-7.22-9.83-2.58-2.66-7.16-6.1-10.19-7.65-3.03-1.55-8.2-3.31-11.5-3.92-3.3-0.61-6.9-1.06-8-1-1.1 0.07-4.03 0.51-6.5 1-2.47 0.48-7.2 2.19-10.5 3.81zm199 107.72c-3.85 1.6-9.93 4.97-13.5 7.49-3.57 2.52-9.2 7.57-12.5 11.21-3.3 3.65-6.35 6.31-6.78 5.9-0.43-0.4-0.76-6.24-0.75-12.98l0.03-12.25h-67v221h67c0.61-121.54 0.84-129.2 2.39-135 0.96-3.57 2.8-8.75 4.1-11.5 1.3-2.75 4.19-6.91 6.43-9.25 2.25-2.34 7.12-5.71 10.83-7.5 6.3-3.03 7.46-3.25 17.25-3.25 8.84 0 11.29 0.36 15.5 2.3 2.75 1.26 6.73 3.96 8.84 6 2.11 2.03 4.92 5.84 6.25 8.45 1.32 2.61 3.09 7.34 3.92 10.5 1.26 4.84 1.5 16.27 1.5 72.5l-0.01 66.75h69c-0.67-143.1-0.96-155.68-2.33-162.5-0.88-4.4-2.76-11.38-4.18-15.5-1.41-4.13-4.2-10.43-6.19-14-2.19-3.93-7.02-9.88-12.21-15.04-5.27-5.24-10.91-9.75-14.59-11.67-3.3-1.73-9.6-4.12-14-5.32-5.8-1.58-11.71-2.29-21.5-2.57-10.53-0.3-15.37 0.03-22 1.47-4.68 1.02-11.65 3.16-15.5 4.76zm-214.5 220.37h68l-0.5-220.5-67.47-0.53z"/>
</svg>